<svg width="41" height="41" viewBox="0 0 41 41" fill="none" xmlns="http://www.w3.org/2000/svg">
<circle cx="20.3629" cy="20.3629" r="20.3629" fill="#FFA24D" fill-opacity="0.1"/>
<path d="M20.3772 15.2963C17.4331 15.2963 15.0584 17.785 15.0584 20.8703C15.0584 23.9557 17.4331 26.4444 20.3772 26.4444C23.3213 26.4444 25.6961 23.9557 25.6961 20.8703C25.6961 17.785 23.3213 15.2963 20.3772 15.2963ZM20.3772 24.4942C18.4747 24.4942 16.9193 22.869 16.9193 20.8703C16.9193 18.8716 18.4701 17.2465 20.3772 17.2465C22.2844 17.2465 23.8352 18.8716 23.8352 20.8703C23.8352 22.869 22.2798 24.4942 20.3772 24.4942ZM27.1542 15.0683C27.1542 15.7911 26.5987 16.3684 25.9136 16.3684C25.2239 16.3684 24.673 15.7863 24.673 15.0683C24.673 14.3503 25.2285 13.7682 25.9136 13.7682C26.5987 13.7682 27.1542 14.3503 27.1542 15.0683ZM30.6769 16.3878C30.5982 14.6462 30.2187 13.1036 29.0012 11.8325C27.7884 10.5615 26.3164 10.1637 24.6545 10.0764C22.9418 9.97453 17.8081 9.97453 16.0953 10.0764C14.4381 10.1589 12.9661 10.5567 11.7486 11.8277C10.5312 13.0987 10.1562 14.6414 10.0729 16.383C9.9757 18.1779 9.9757 23.5579 10.0729 25.3529C10.1516 27.0944 10.5312 28.6371 11.7486 29.9081C12.9661 31.1792 14.4335 31.577 16.0953 31.6643C17.8081 31.7661 22.9418 31.7661 24.6545 31.6643C26.3164 31.5818 27.7884 31.184 29.0012 29.9081C30.214 28.6371 30.5936 27.0944 30.6769 25.3529C30.7742 23.5579 30.7742 18.1828 30.6769 16.3878ZM28.4642 27.2788C28.1032 28.2296 27.4042 28.9622 26.4923 29.3454C25.1267 29.913 21.8863 29.782 20.3772 29.782C18.8682 29.782 15.6232 29.9081 14.2622 29.3454C13.3549 28.967 12.6559 28.2345 12.2902 27.2788C11.7486 25.8477 11.8736 22.4518 11.8736 20.8703C11.8736 19.2888 11.7533 15.8882 12.2902 14.4619C12.6513 13.5111 13.3503 12.7785 14.2622 12.3953C15.6278 11.8277 18.8682 11.9587 20.3772 11.9587C21.8863 11.9587 25.1313 11.8325 26.4923 12.3953C27.3996 12.7737 28.0985 13.5062 28.4642 14.4619C29.0058 15.893 28.8809 19.2888 28.8809 20.8703C28.8809 22.4518 29.0058 25.8525 28.4642 27.2788Z" fill="#FFA24D"/>
</svg>
