<svg width="98" height="51" viewBox="0 0 98 51" fill="none" xmlns="http://www.w3.org/2000/svg">
<circle cx="25.5" cy="25.5" r="25.5" fill="#CBCCCC" fill-opacity="0.1"/>
<circle cx="72.5" cy="25.5" r="25.5" fill="#CBCCCC" fill-opacity="0.1"/>
<path d="M40.5989 14.7576L36.6012 2.85776C36.4347 2.36191 36.7307 1.83019 37.2395 1.7114L44.4697 0.023366C44.9489 -0.088504 45.4273 0.212195 45.535 0.692935L47.1192 7.7669C47.3235 8.67896 48.1321 9.32719 49.0656 9.32719C49.999 9.32719 50.8076 8.67896 51.0119 7.7669L52.5935 0.705045C52.7022 0.219625 53.1883 -0.0812919 53.6706 0.0383251L60.3755 1.70155C60.8779 1.82618 61.167 2.35382 61.0019 2.84506L57 14.7576C56.3938 16.5622 54.7046 17.7778 52.8032 17.7778H44.7957C42.8943 17.7778 41.2051 16.5622 40.5989 14.7576Z" fill="url(#paint0_linear_1024_636)"/>
<path d="M64 30.6172C64 38.9015 57.2843 45.6172 49 45.6172C40.7157 45.6172 34 38.9015 34 30.6172C34 22.3329 40.7157 15.6172 49 15.6172C57.2843 15.6172 64 22.3329 64 30.6172Z" fill="#CBCCCC" stroke="white" stroke-width="2"/>
<path d="M48.3489 22.7356C48.6148 21.9195 49.7785 21.9195 50.0444 22.7356L51.3896 26.8649C51.5084 27.2297 51.8508 27.477 52.2373 27.477H56.6003C57.4622 27.477 57.8218 28.5703 57.1258 29.0747L53.588 31.6383C53.2774 31.8634 53.1474 32.2609 53.2657 32.624L54.6151 36.7662C54.8807 37.5814 53.9393 38.2572 53.242 37.7519L49.7221 35.2013C49.4091 34.9744 48.9842 34.9744 48.6712 35.2013L45.1513 37.7519C44.454 38.2572 43.5126 37.5814 43.7781 36.7662L45.1275 32.624C45.2458 32.2609 45.1159 31.8634 44.8053 31.6383L41.2676 29.0747C40.5715 28.5703 40.9311 27.477 41.793 27.477H46.156C46.5425 27.477 46.8849 27.2297 47.0037 26.8649L48.3489 22.7356Z" fill="#FFF7F7"/>
<defs>
<linearGradient id="paint0_linear_1024_636" x1="48.7994" y1="-0.179696" x2="48.7994" y2="17.7778" gradientUnits="userSpaceOnUse">
<stop stop-color="#3F72F9"/>
<stop offset="1" stop-color="#6389EF"/>
</linearGradient>
</defs>
</svg>
