<svg width="41" height="41" viewBox="0 0 41 41" fill="none" xmlns="http://www.w3.org/2000/svg">
<circle cx="20.3629" cy="20.3629" r="20.3629" fill="#FFA24D" fill-opacity="0.1"/>
<g clip-path="url(#clip0_1126_32)">
<path d="M30.0001 18.4296C28.0346 18.4343 26.1174 17.8175 24.5193 16.6664V24.6948C24.5187 26.1818 24.067 27.6331 23.2246 28.8548C22.3822 30.0765 21.1893 31.0102 19.8052 31.5313C18.4212 32.0523 16.9121 32.1357 15.4796 31.7703C14.0472 31.405 12.7598 30.6083 11.7895 29.4869C10.8192 28.3654 10.2122 26.9725 10.0498 25.4946C9.88742 24.0167 10.1773 22.524 10.8807 21.2163C11.5841 19.9087 12.6675 18.8482 13.986 18.1768C15.3045 17.5054 16.7953 17.2551 18.259 17.4592V21.4973C17.5892 21.2853 16.8699 21.2917 16.204 21.5155C15.538 21.7394 14.9593 22.1693 14.5506 22.7438C14.1419 23.3183 13.9241 24.0081 13.9282 24.7146C13.9324 25.4212 14.1583 26.1083 14.5737 26.6779C14.9891 27.2476 15.5727 27.6706 16.2413 27.8865C16.9098 28.1025 17.6291 28.1004 18.2964 27.8804C18.9636 27.6605 19.5448 27.234 19.9568 26.6619C20.3689 26.0898 20.5907 25.4013 20.5907 24.6948V9H24.5193C24.5165 9.33383 24.5443 9.66721 24.6023 9.99592C24.7388 10.7297 25.0227 11.4278 25.4365 12.0474C25.8503 12.667 26.3854 13.1952 27.009 13.5996C27.8962 14.1899 28.9364 14.5045 30.0001 14.5043V18.4296Z" fill="#FFA24D"/>
</g>
<defs>
<clipPath id="clip0_1126_32">
<rect width="20" height="23" fill="white" transform="translate(10 9)"/>
</clipPath>
</defs>
</svg>
