<svg width="41" height="41" viewBox="0 0 41 41" fill="none" xmlns="http://www.w3.org/2000/svg">
<circle cx="20.6363" cy="20.3629" r="20.3629" fill="#FFA24D" fill-opacity="0.1"/>
<g clip-path="url(#clip0_961_212)">
<path d="M16.253 26.494L16.977 26.917C18.198 27.6291 19.5866 28.0029 21 28C22.5823 28 24.129 27.5308 25.4446 26.6518C26.7602 25.7727 27.7855 24.5233 28.3911 23.0615C28.9966 21.5997 29.155 19.9911 28.8463 18.4393C28.5376 16.8874 27.7757 15.462 26.6569 14.3431C25.538 13.2243 24.1126 12.4624 22.5607 12.1537C21.0089 11.845 19.4004 12.0035 17.9385 12.609C16.4767 13.2145 15.2273 14.2398 14.3483 15.5554C13.4692 16.871 13 18.4177 13 20C13 21.436 13.377 22.813 14.084 24.024L14.506 24.748L13.853 27.149L16.253 26.494ZM11.004 30L12.356 25.032C11.4652 23.5049 10.9971 21.768 11 20C11 14.477 15.477 10 21 10C26.523 10 31 14.477 31 20C31 25.523 26.523 30 21 30C19.2328 30.0029 17.4967 29.5352 15.97 28.645L11.004 30ZM17.391 15.308C17.525 15.298 17.66 15.298 17.794 15.304C17.848 15.308 17.902 15.314 17.956 15.32C18.115 15.338 18.29 15.435 18.349 15.569C18.647 16.245 18.937 16.926 19.217 17.609C19.279 17.761 19.242 17.956 19.124 18.146C19.0429 18.2745 18.9551 18.3986 18.861 18.518C18.748 18.663 18.505 18.929 18.505 18.929C18.505 18.929 18.406 19.047 18.444 19.194C18.458 19.25 18.504 19.331 18.546 19.399L18.605 19.494C18.861 19.921 19.205 20.354 19.625 20.762C19.745 20.878 19.862 20.997 19.988 21.108C20.456 21.521 20.986 21.858 21.558 22.108L21.563 22.11C21.648 22.147 21.691 22.167 21.815 22.22C21.877 22.246 21.941 22.269 22.006 22.286C22.0732 22.3031 22.1439 22.2999 22.2093 22.2767C22.2746 22.2536 22.3316 22.2116 22.373 22.156C23.097 21.279 23.163 21.222 23.169 21.222V21.224C23.2193 21.1771 23.2791 21.1415 23.3443 21.1196C23.4095 21.0977 23.4786 21.09 23.547 21.097C23.607 21.101 23.668 21.112 23.724 21.137C24.255 21.38 25.124 21.759 25.124 21.759L25.706 22.02C25.804 22.067 25.893 22.178 25.896 22.285C25.9 22.352 25.906 22.46 25.883 22.658C25.851 22.917 25.773 23.228 25.695 23.391C25.6416 23.5022 25.5707 23.6042 25.485 23.693C25.3841 23.7989 25.2736 23.8954 25.155 23.981C25.114 24.0119 25.0723 24.0419 25.03 24.071C24.9056 24.1499 24.7778 24.2233 24.647 24.291C24.3895 24.4278 24.1052 24.5063 23.814 24.521C23.629 24.531 23.444 24.545 23.258 24.535C23.25 24.535 22.69 24.448 22.69 24.448C21.2683 24.074 19.9534 23.3735 18.85 22.402C18.624 22.203 18.415 21.989 18.201 21.776C17.311 20.891 16.639 19.936 16.231 19.034C16.0222 18.5913 15.9094 18.1094 15.9 17.62C15.8959 17.0129 16.0944 16.4217 16.464 15.94C16.537 15.846 16.606 15.748 16.725 15.635C16.852 15.515 16.932 15.451 17.019 15.407C17.1347 15.349 17.2609 15.315 17.39 15.307L17.391 15.308Z" fill="#FFA24D"/>
</g>
<defs>
<clipPath id="clip0_961_212">
<rect width="24" height="24" fill="white" transform="translate(9 8)"/>
</clipPath>
</defs>
</svg>
